<?xml version="1.0" encoding="utf-8"?>
<!-- Generator: Adobe Illustrator 15.1.0, SVG Export Plug-In  -->
<!DOCTYPE svg PUBLIC "-//W3C//DTD SVG 1.1//EN" "http://www.w3.org/Graphics/SVG/1.1/DTD/svg11.dtd" [
	<!ENTITY ns_flows "http://ns.adobe.com/Flows/1.0/">
]>
<svg version="1.1"
	 xmlns="http://www.w3.org/2000/svg" xmlns:xlink="http://www.w3.org/1999/xlink" xmlns:a="http://ns.adobe.com/AdobeSVGViewerExtensions/3.0/"
	 x="0px" y="0px" width="1280px" height="1280px" viewBox="-250.29 -128.412 1280 1280"
	 enable-background="new -250.29 -128.412 1280 1280" xml:space="preserve">
<defs>
</defs>
<path d="M582.979,865.938v81.271c0,6.62-5.369,12-12,12H208.44c-6.63,0-12-5.38-12-12v-81.271H582.979z"/>
<path d="M779.13,476.508v389.43h-196.15v-281.27c0-6.63-5.369-12-12-12H208.44c-6.63,0-12,5.37-12,12v281.27H0.29v-389.43H779.13z"
	/>
<polygon points="779.42,433.65 746.87,433.65 584.86,253.37 390,36.54 195.14,253.37 33.13,433.65 0,433.65 194.85,216.83 389.71,0 
	584.57,216.83 "/>
<g id="XMLID_2_">
	<g>
		<path d="M374.56,821.868c-1.12,0.47,0.06,2.95,0.52,1.56c-0.47,1.78,7.47,7.23,12.4,7.75c16.34,1.73,25.11-13.64,21.72-34.12
			c-7.2-0.029-11.82-2.66-16.03-5.68c0,9.65,0,19.29,0,28.94c-12.46,6.619-5.3-23.25-7.23-28.94c-2.56,4.34-9.66,4.13-13.96,6.72
			c0.13-1.37,1.06-1.7-1.04-1.56c-0.15,3.02-2.35,20.99,3.11,25.85C374.02,821.838,374.28,821.078,374.56,821.868z M504.3,584.607
			c18.2,3.33,18.62,29.65,18.62,52.211c0,37.72-10.33,74.189-26.37,93.56c2.4,7.88,4.5,14.9,8.79,22.75
			c3.41,6.229,11.43,13.3,10.851,20.15c-0.91,10.979-20.95,13.479-26.87,20.17c0.529,2.47,3.39,4.51,3.09,8.79
			c-0.49,7.239-13.9,12.359-20.15,16.02c-8.51,4.97-15.1,9.33-22.75,12.92c-33.91,15.9-84.27,16.75-118.38,0.521
			c-7.37-3.511-14.27-7.9-22.74-12.931c-8.01-4.76-28.72-12.069-17.57-24.8c-4.75-6.24-26.97-10.71-27.4-21.2
			c-0.25-6.199,8.67-14.25,11.37-19.13c5.38-9.689,10.81-20.93,5.18-29.46c-12.71-19.24-25.19-52.59-23.27-93.04
			c0.86-18.149,1.36-38.77,14.47-44.97c4.13-0.65,2.95,0.27,4.66-1.561c13.21-1.02,19.09,5.591,27.91,11.381
			c17.1,11.18,33.63,23.17,50.66,33.59c15.55-5.34,35.47-7.79,54.8-4.13c5.58,1.05,12.38,4.399,16.02,4.13
			c4.11-0.3,13.16-7.891,17.58-10.851c12.49-8.37,21.72-14.51,34.11-22.739C484.68,590.808,490.91,582.158,504.3,584.607z
			 M494.479,716.418c12.45-20.51,19.471-47.3,19.141-80.12c-0.11-9.92-0.24-28.83-3.63-36.19c-6.74-14.64-22.721,0.29-29.98,5.181
			c-19.08,12.859-35.359,23.01-53.76,35.149c-19.47-9.93-54.23-9.279-73.4,0c-17.38-11.76-34.87-23.52-52.73-35.67
			c-5.07-3.449-13.12-10.319-18.6-10.85c-14.61-1.41-14.45,19.16-15,31.53c-1.82,41.56,8.24,81.64,26.89,102.859
			c-2.64,18.41-11.91,32.9-19.65,44.46c10.29,5.91,20.83,11.57,30.5,18.09c-1.8,4.07-4.35,7.37-7.24,10.341
			c22.74,12.93,42.54,28.79,74.96,32.05c-7.85-6.521-10.64-22.08-9.31-38.26c-3.06-1.62-6.94-4.5-9.31-7.75
			c-1.39-1.91-7.84-14.71-1.55-16.53c6.44-1.87,5.63,8.43,6.21,9.82c5.96,14.149,31.61,7.8,27.92-7.761
			c-0.88-3.66-6.64-7.27-8.28-8.79c-2.98-2.75-8.9-5.22-8.27-9.3c0.77-4.979,14.68-3.109,20.16-3.109
			c4.28,0,19.811-1.87,20.68,3.109c0.641,3.72-5.17,7.46-7.76,9.82c-4.25,3.87-8.09,4.85-8.779,8.78
			c-0.98,5.54,3.899,11.609,5.68,12.93c7.28,5.399,17.29,1.68,20.68-2.58c1.5-1.89,2.19-12.47,6.2-12.92
			c8.74-1,1.87,15.26-1.03,18.6c-2.47,2.84-6.8,4.16-8.27,6.721c0.43,12.5,0.3,23.25-3.62,29.979c-1.82,3.12-5.48,5.4-5.17,7.24
			c30.53-2.86,51.819-19.08,74.43-31.53c-1.99-4.04-5.07-6.99-6.71-11.37c10.16-5.87,20.01-12.05,30.49-17.58
			c-3.05-5.739-8.08-12.199-11.891-20.16c-2.149-4.51-8.59-18.289-7.75-24.3C487.13,725.458,492.95,718.958,494.479,716.418z"/>
		<path d="M434.52,712.288c7.5,0.899,13.561,6.42,12.41,15.5c-9.939,5.25-6.55-7.38-16.02-6.19c-3.42,0.42-11.521,14.25-14.48,4.641
			C413.93,718.147,425.87,711.258,434.52,712.288z"/>
		<path d="M337.86,714.868c9.02-6.12,28.1-1.13,24.81,12.92c-8.79,6.439-6.7-7.63-16.02-6.19c-4.56,0.69-5.07,7.391-9.31,7.75
			C327.95,730.138,334.12,717.418,337.86,714.868z"/>
	</g>
	<g>
		<path fill="none" stroke="#000000" stroke-width="0.5" stroke-linecap="round" stroke-linejoin="round" d="M352.85,640.438
			c19.17-9.279,53.93-9.93,73.4,0c18.4-12.14,34.68-22.29,53.76-35.149c7.26-4.891,23.24-19.82,29.98-5.181
			c3.39,7.36,3.52,26.271,3.63,36.19c0.33,32.82-6.69,59.61-19.141,80.12c-1.529,2.54-7.35,9.04-7.75,11.89
			c-0.84,6.011,5.601,19.79,7.75,24.3c3.811,7.961,8.841,14.421,11.891,20.16c-10.48,5.53-20.33,11.71-30.49,17.58
			c1.64,4.38,4.72,7.33,6.71,11.37c-22.61,12.45-43.899,28.67-74.43,31.53c-0.311-1.84,3.35-4.12,5.17-7.24
			c3.92-6.729,4.05-17.479,3.62-29.979c1.47-2.561,5.8-3.881,8.27-6.721c2.9-3.34,9.771-19.6,1.03-18.6
			c-4.01,0.45-4.7,11.03-6.2,12.92c-3.39,4.26-13.399,7.979-20.68,2.58c-1.78-1.32-6.66-7.39-5.68-12.93
			c0.689-3.931,4.529-4.91,8.779-8.78c2.59-2.36,8.4-6.101,7.76-9.82c-0.869-4.979-16.399-3.109-20.68-3.109
			c-5.48,0-19.39-1.87-20.16,3.109c-0.63,4.08,5.29,6.55,8.27,9.3c1.64,1.521,7.4,5.13,8.28,8.79
			c3.69,15.561-21.96,21.91-27.92,7.761c-0.58-1.391,0.23-11.69-6.21-9.82c-6.29,1.82,0.16,14.62,1.55,16.53
			c2.37,3.25,6.25,6.13,9.31,7.75c-1.33,16.18,1.46,31.739,9.31,38.26c-32.42-3.26-52.22-19.12-74.96-32.05
			c2.89-2.971,5.44-6.271,7.24-10.341c-9.67-6.52-20.21-12.18-30.5-18.09c7.74-11.56,17.01-26.05,19.65-44.46
			c-18.65-21.22-28.71-61.3-26.89-102.859c0.55-12.37,0.39-32.94,15-31.53c5.48,0.53,13.53,7.4,18.6,10.85
			C317.98,616.918,335.47,628.678,352.85,640.438z"/>
		<path fill="none" stroke="#000000" stroke-width="0.5" stroke-linecap="round" stroke-linejoin="round" d="M393.69,794.988
			c1.17,3.489,0.189,13.6,0.51,19.649C393.02,811.168,394.01,801.048,393.69,794.988z"/>
		<path fill="none" stroke="#000000" stroke-width="0.5" stroke-linecap="round" stroke-linejoin="round" d="M404.54,823.938
			c-0.57-0.939,0.84-4.3,2.59-4.649C406.07,820.647,405.35,822.338,404.54,823.938z"/>
		<path fill="none" stroke="#000000" stroke-width="0.5" stroke-linecap="round" stroke-linejoin="round" d="M385.94,791.378
			c1.93,5.69-5.23,35.56,7.23,28.94c0-9.65,0-19.29,0-28.94c4.21,3.02,8.83,5.65,16.03,5.68c3.39,20.48-5.38,35.851-21.72,34.12
			c-4.93-0.52-12.87-5.97-12.4-7.75c-0.46,1.391-1.64-1.09-0.52-1.56c-0.28-0.79-0.54-0.03-0.51,0.52
			c-5.46-4.859-3.26-22.83-3.11-25.85c2.1-0.141,1.17,0.189,1.04,1.56C376.28,795.508,383.38,795.718,385.94,791.378z"/>
		<path fill="none" stroke="#000000" stroke-miterlimit="10" d="M354.4,629.578c15.55-5.34,35.47-7.79,54.8-4.13
			c5.58,1.05,12.38,4.399,16.02,4.13c4.11-0.3,13.16-7.891,17.58-10.851c12.49-8.37,21.72-14.51,34.11-22.739
			c7.77-5.181,14-13.83,27.39-11.381c18.2,3.33,18.62,29.65,18.62,52.211c0,37.72-10.33,74.189-26.37,93.56
			c2.4,7.88,4.5,14.9,8.79,22.75c3.41,6.229,11.43,13.3,10.851,20.15c-0.91,10.979-20.95,13.479-26.87,20.17
			c0.529,2.47,3.39,4.51,3.09,8.79c-0.49,7.239-13.9,12.359-20.15,16.02c-8.51,4.97-15.1,9.33-22.75,12.92
			c-33.91,15.9-84.27,16.75-118.38,0.521c-7.37-3.511-14.27-7.9-22.74-12.931c-8.01-4.76-28.72-12.069-17.57-24.8
			c-4.75-6.24-26.97-10.71-27.4-21.2c-0.25-6.199,8.67-14.25,11.37-19.13c5.38-9.689,10.81-20.93,5.18-29.46
			c-12.71-19.24-25.19-52.59-23.27-93.04c0.86-18.149,1.36-38.77,14.47-44.97c4.13-0.65,2.95,0.27,4.66-1.561
			c13.21-1.02,19.09,5.591,27.91,11.381C320.84,607.168,337.37,619.158,354.4,629.578z"/>
	</g>
</g>
<path d="M347.113,219.958l-5.871,14.439h9.15h1.375c3.948,0,5.923,1.728,5.923,5.183c0,2.327-0.864,4.152-2.591,5.474
	c-1.728,1.322-4.125,1.983-7.193,1.983h-10.842c-3.42,0-6.135-0.784-8.145-2.354c-2.01-1.568-3.015-3.71-3.015-6.426
	c0-1.692,0.405-3.525,1.216-5.5l0.846-2.063l4.39-10.737h-16.872l-10.313,25.334c-7.087,17.489-17.665,26.233-31.734,26.233
	c-7.476,0-13.637-2.336-18.485-7.008c-4.849-4.672-7.272-10.623-7.272-17.85c0-5.571,1.41-10.896,4.231-15.973
	c2.821-5.078,6.805-9.449,11.953-13.117c4.337-3.068,9.388-5.5,15.153-7.299c5.765-1.798,11.432-2.697,17.004-2.697l7.51-0.212
	l2.327-0.053l10.313-25.334l0.582-1.534c1.763-4.231,4.548-6.347,8.356-6.347c1.727,0,3.173,0.521,4.337,1.56
	c1.164,1.041,1.746,2.301,1.746,3.782c0,1.199-0.494,3.015-1.481,5.448l-9.097,22.425h16.872l10.208-25.123l0.635-1.587
	c1.798-4.337,4.619-6.505,8.462-6.505c1.657,0,3.067,0.529,4.231,1.587c1.164,1.058,1.746,2.362,1.746,3.914
	c0,1.199-0.512,3.068-1.534,5.606l-8.992,22.108h4.073h1.428c3.914,0,5.871,1.728,5.871,5.183c0,2.327-0.864,4.152-2.592,5.474
	c-1.728,1.322-4.108,1.983-7.14,1.983H347.113z M300.729,219.958h-2.856c-10.438,0-18.776,2.38-25.017,7.14
	c-3.245,2.468-5.801,5.307-7.669,8.515c-1.869,3.209-2.803,6.365-2.803,9.467c0,3.667,1.11,6.708,3.332,9.124
	c2.221,2.415,5.024,3.623,8.409,3.623c7.475,0,13.663-6.048,18.564-18.141L300.729,219.958z"/>
<path d="M390.112,205.836c5.112,0,9.317,1.622,12.614,4.866c3.297,3.245,4.945,7.37,4.945,12.376c0,3.773-0.864,7.52-2.592,11.239
	c-1.728,3.721-3.967,6.691-6.717,8.912c-1.834,1.446-3.729,2.442-5.686,2.988c-1.957,0.547-4.699,0.82-8.225,0.82
	c-5.747,0-9.626-0.688-11.636-2.063c-4.725-3.244-7.087-8.04-7.087-14.386c0-6.699,2.415-12.5,7.246-17.401
	C377.807,208.287,383.519,205.836,390.112,205.836z M388.843,217.102c-2.609,0-4.989,1.288-7.14,3.861
	c-2.151,2.574-3.227,5.413-3.227,8.515c0,4.091,2.292,6.135,6.876,6.135c2.679,0,4.742-0.828,6.188-2.486
	c2.397-2.715,3.597-5.818,3.597-9.309c0-2.01-0.581-3.631-1.745-4.866C392.229,217.719,390.712,217.102,388.843,217.102z"/>
<path d="M474.101,235.507h6.294c4.443,0,6.664,1.569,6.664,4.707c0,2.151-0.784,3.826-2.354,5.024
	c-1.569,1.199-3.746,1.798-6.531,1.798h-10.737c-2.327,0-4.214-0.617-5.659-1.851c-1.446-1.234-2.168-2.856-2.168-4.866
	c0-1.375,0.476-3.244,1.428-5.606l4.972-12.112c0.282-0.705,0.423-1.357,0.423-1.957c0-2.292-1.163-3.438-3.49-3.438
	c-1.799,0-3.579,0.812-5.342,2.433c-1.764,1.622-3.174,3.773-4.231,6.453l-5.924,14.598c-1.939,4.725-4.76,7.087-8.462,7.087
	c-1.446,0-2.681-0.476-3.702-1.428c-1.023-0.952-1.534-2.08-1.534-3.385c0-1.022,0.265-2.221,0.793-3.596l0.582-1.428l5.977-14.756
	c0.529-1.304,0.794-2.327,0.794-3.067c0-0.775-0.354-1.455-1.059-2.036c-0.705-0.582-1.533-0.873-2.485-0.873
	c-3.809,0-6.823,2.75-9.044,8.251l-6.188,15.179c-1.939,4.76-4.743,7.14-8.409,7.14c-1.446,0-2.689-0.467-3.729-1.401
	c-1.04-0.934-1.56-2.071-1.56-3.412c0-1.058,0.265-2.256,0.793-3.596l0.582-1.428l10.525-25.916c1.48-3.631,3.702-5.448,6.664-5.448
	c3.067,0,4.972,1.446,5.712,4.337c2.397-2.045,4.345-3.402,5.844-4.073c1.499-0.669,3.341-1.005,5.527-1.005
	c4.725,0,8.269,2.063,10.631,6.188c3.948-4.125,8.392-6.188,13.328-6.188c3.385,0,6.215,0.979,8.489,2.936
	c2.274,1.957,3.411,4.363,3.411,7.219c0,1.798-0.389,3.649-1.164,5.554L474.101,235.507z"/>
<path d="M501.763,231.541c0,2.645,1.992,3.967,5.977,3.967h15.708c4.443,0,6.664,1.569,6.664,4.707c0,2.151-0.784,3.826-2.354,5.024
	c-1.569,1.199-3.764,1.798-6.584,1.798h-14.968c-5.572,0-9.812-1.375-12.721-4.125c-2.909-2.75-4.363-6.77-4.363-12.059
	c0-6.805,2.301-12.676,6.902-17.612s10.075-7.405,16.422-7.405c4.619,0,8.33,1.208,11.134,3.623
	c2.803,2.416,4.204,5.598,4.204,9.546c0,4.76-1.939,8.287-5.817,10.578c-2.151,1.305-5.36,1.957-9.626,1.957H501.763z
	 M504.302,221.915h5.817c3.772,0,5.606-0.828,5.501-2.486c-0.105-1.869-1.322-2.803-3.649-2.803
	C508.727,216.625,506.17,218.389,504.302,221.915z"/>
<path d="M399.073,287.775l4.866,6.135l2.803,3.385c5.43,6.7,8.146,13.787,8.146,21.262c0,7.263-2.398,13.627-7.193,19.093
	c-6.559,7.51-15.145,11.266-25.758,11.266c-8.216,0-14.95-2.531-20.204-7.59c-5.254-5.06-7.88-11.539-7.88-19.437
	c0-9.661,4.09-17.718,12.271-24.171c4.337-3.419,8.338-5.13,12.006-5.13c1.904,0,3.455,0.547,4.654,1.639
	c1.198,1.094,1.798,2.504,1.798,4.231c0,2.327-1.375,4.337-4.125,6.029l-4.231,2.592c-2.433,1.516-4.46,3.632-6.082,6.347
	c-1.622,2.715-2.433,5.395-2.433,8.039c0,4.196,1.419,7.66,4.257,10.393c2.838,2.732,6.444,4.099,10.816,4.099
	c4.83,0,9.026-1.808,12.588-5.421c3.561-3.615,5.342-7.872,5.342-12.773c0-3.102-0.723-5.924-2.169-8.462
	c-1.445-2.539-4.566-6.47-9.361-11.794c-3.35-3.702-5.747-6.946-7.192-9.731h-14.281c-4.866,0-7.299-1.674-7.299-5.025
	c0-2.433,0.854-4.311,2.565-5.633c1.71-1.322,4.116-1.983,7.219-1.983h9.044c0.705-6.981,3.896-12.754,9.573-17.321
	c5.677-4.566,12.482-6.849,20.416-6.849c5.958,0,10.815,1.64,14.57,4.919c3.756,3.279,5.633,7.528,5.633,12.746
	c0,6.947-2.979,12.271-8.938,15.973c-3.386,2.116-8.763,3.174-16.132,3.174H399.073z M392.727,275.134h12.693
	c7.157,0,10.736-2.08,10.736-6.241c0-1.622-0.731-2.926-2.194-3.914c-1.464-0.986-3.411-1.481-5.845-1.481
	c-3.808,0-7.272,1.182-10.393,3.544C394.604,269.405,392.938,272.102,392.727,275.134z"/>
<path d="M463.599,304.224l12.43-16.185l1.005-1.269c2.08-2.715,4.371-4.073,6.875-4.073c1.587,0,2.891,0.521,3.914,1.56
	c1.022,1.041,1.534,2.354,1.534,3.94c0,1.658-1.076,3.844-3.227,6.559l-19.834,24.964c-2.609,3.279-5.307,4.918-8.092,4.918
	c-2.293,0-4.231-0.863-5.818-2.591c-1.586-1.727-2.38-3.843-2.38-6.347c0-0.635,0.053-1.287,0.159-1.957l1.745-9.52l-10.789,15.497
	c-2.258,3.279-4.761,4.918-7.511,4.918c-2.362,0-4.303-0.916-5.818-2.75c-1.516-1.833-2.273-4.196-2.273-7.087
	c0-0.423,0.017-0.775,0.053-1.058l1.48-22.161c0.212-2.856,0.96-5.051,2.248-6.584c1.287-1.534,3.041-2.301,5.263-2.301
	c3.313,0,4.972,1.816,4.972,5.448c0,0.6-0.036,1.269-0.106,2.01l-1.48,14.809l11.794-16.872c2.504-3.596,5.412-5.395,8.728-5.395
	c2.044,0,3.666,0.582,4.865,1.745c1.198,1.164,1.799,2.733,1.799,4.708c0,0.812-0.019,1.411-0.053,1.798L463.599,304.224z"/>
<path d="M499.299,308.402c0,2.645,1.992,3.967,5.977,3.967h15.708c4.443,0,6.664,1.569,6.664,4.707c0,2.151-0.784,3.826-2.354,5.024
	c-1.569,1.199-3.764,1.798-6.584,1.798h-14.968c-5.572,0-9.812-1.375-12.721-4.125c-2.909-2.75-4.363-6.77-4.363-12.059
	c0-6.805,2.301-12.676,6.902-17.612s10.075-7.405,16.422-7.405c4.619,0,8.33,1.208,11.134,3.623
	c2.803,2.416,4.204,5.598,4.204,9.546c0,4.76-1.939,8.287-5.817,10.578c-2.151,1.305-5.36,1.957-9.626,1.957H499.299z
	 M501.838,298.776h5.817c3.772,0,5.606-0.828,5.501-2.486c-0.105-1.869-1.322-2.803-3.649-2.803
	C506.263,293.487,503.706,295.25,501.838,298.776z"/>
<path d="M336.492,380.277l-5.871,14.439h9.15h1.375c3.948,0,5.923,1.728,5.923,5.183c0,2.327-0.864,4.152-2.591,5.474
	c-1.728,1.322-4.125,1.983-7.193,1.983h-10.842c-3.42,0-6.135-0.784-8.145-2.354c-2.01-1.568-3.015-3.71-3.015-6.426
	c0-1.692,0.405-3.525,1.216-5.5l0.846-2.063l4.39-10.737h-16.872l-10.313,25.334c-7.087,17.489-17.665,26.233-31.734,26.233
	c-7.476,0-13.637-2.336-18.485-7.008c-4.849-4.672-7.272-10.623-7.272-17.85c0-5.571,1.41-10.896,4.231-15.973
	c2.821-5.078,6.805-9.449,11.953-13.117c4.337-3.068,9.388-5.5,15.153-7.299c5.765-1.798,11.432-2.697,17.004-2.697l7.51-0.212
	l2.327-0.053l10.313-25.334l0.582-1.534c1.763-4.231,4.548-6.347,8.356-6.347c1.727,0,3.173,0.521,4.337,1.56
	c1.164,1.041,1.746,2.301,1.746,3.782c0,1.199-0.494,3.015-1.481,5.448l-9.097,22.425h16.872l10.208-25.123l0.635-1.587
	c1.798-4.337,4.619-6.505,8.462-6.505c1.657,0,3.067,0.529,4.231,1.587c1.164,1.058,1.746,2.362,1.746,3.914
	c0,1.199-0.512,3.068-1.534,5.606l-8.992,22.108h4.073h1.428c3.914,0,5.871,1.728,5.871,5.183c0,2.327-0.864,4.152-2.592,5.474
	c-1.728,1.322-4.108,1.983-7.14,1.983H336.492z M290.107,380.277h-2.856c-10.438,0-18.776,2.38-25.017,7.14
	c-3.245,2.468-5.801,5.307-7.669,8.515c-1.869,3.209-2.803,6.365-2.803,9.467c0,3.667,1.11,6.708,3.332,9.124
	c2.221,2.415,5.024,3.623,8.409,3.623c7.475,0,13.663-6.048,18.564-18.141L290.107,380.277z"/>
<path d="M379.491,366.155c5.111,0,9.316,1.622,12.614,4.866c3.296,3.245,4.945,7.37,4.945,12.376c0,3.773-0.865,7.52-2.592,11.239
	c-1.729,3.721-3.967,6.691-6.718,8.912c-1.833,1.446-3.729,2.442-5.686,2.988c-1.957,0.547-4.699,0.82-8.224,0.82
	c-5.748,0-9.626-0.688-11.636-2.063c-4.725-3.244-7.087-8.04-7.087-14.386c0-6.699,2.415-12.5,7.246-17.401
	C367.185,368.606,372.897,366.155,379.491,366.155z M378.222,377.421c-2.61,0-4.99,1.288-7.14,3.861
	c-2.151,2.574-3.227,5.413-3.227,8.515c0,4.091,2.292,6.135,6.876,6.135c2.679,0,4.742-0.828,6.188-2.486
	c2.397-2.715,3.597-5.818,3.597-9.309c0-2.01-0.582-3.631-1.745-4.866C381.606,378.038,380.09,377.421,378.222,377.421z"/>
<path d="M463.479,395.827h6.294c4.443,0,6.664,1.569,6.664,4.707c0,2.151-0.784,3.826-2.354,5.024
	c-1.569,1.199-3.746,1.798-6.531,1.798h-10.737c-2.327,0-4.214-0.617-5.659-1.851c-1.446-1.234-2.168-2.856-2.168-4.866
	c0-1.375,0.476-3.244,1.428-5.606l4.972-12.112c0.282-0.705,0.423-1.357,0.423-1.957c0-2.292-1.163-3.438-3.49-3.438
	c-1.799,0-3.579,0.812-5.342,2.433c-1.764,1.622-3.174,3.773-4.231,6.453l-5.924,14.598c-1.939,4.725-4.76,7.087-8.462,7.087
	c-1.446,0-2.681-0.476-3.702-1.428c-1.023-0.952-1.534-2.08-1.534-3.385c0-1.022,0.265-2.221,0.793-3.596l0.582-1.428l5.977-14.756
	c0.529-1.304,0.794-2.327,0.794-3.067c0-0.775-0.354-1.455-1.059-2.036c-0.705-0.582-1.533-0.873-2.485-0.873
	c-3.809,0-6.823,2.75-9.044,8.251l-6.188,15.179c-1.939,4.76-4.743,7.14-8.409,7.14c-1.446,0-2.689-0.467-3.729-1.401
	c-1.04-0.934-1.56-2.071-1.56-3.412c0-1.058,0.265-2.256,0.793-3.596l0.582-1.428l10.525-25.916c1.48-3.631,3.702-5.448,6.664-5.448
	c3.067,0,4.972,1.446,5.712,4.337c2.397-2.045,4.345-3.402,5.844-4.073c1.499-0.669,3.341-1.005,5.527-1.005
	c4.725,0,8.269,2.063,10.631,6.188c3.948-4.125,8.392-6.188,13.328-6.188c3.385,0,6.215,0.979,8.489,2.936
	c2.274,1.957,3.411,4.363,3.411,7.219c0,1.798-0.389,3.649-1.164,5.554L463.479,395.827z"/>
<path d="M491.142,391.86c0,2.645,1.992,3.967,5.977,3.967h15.708c4.443,0,6.664,1.569,6.664,4.707c0,2.151-0.784,3.826-2.354,5.024
	c-1.569,1.199-3.764,1.798-6.584,1.798h-14.968c-5.572,0-9.812-1.375-12.721-4.125c-2.909-2.75-4.363-6.77-4.363-12.059
	c0-6.805,2.301-12.676,6.902-17.612s10.075-7.405,16.422-7.405c4.619,0,8.33,1.208,11.134,3.623
	c2.803,2.416,4.204,5.598,4.204,9.546c0,4.76-1.939,8.287-5.817,10.578c-2.151,1.305-5.36,1.957-9.626,1.957H491.142z
	 M493.681,382.234h5.817c3.772,0,5.606-0.828,5.501-2.486c-0.105-1.869-1.322-2.803-3.649-2.803
	C498.105,376.945,495.549,378.708,493.681,382.234z"/>
</svg>
