<?xml version="1.0" encoding="utf-8"?>
<!-- Generator: Adobe Illustrator 15.1.0, SVG Export Plug-In  -->
<!DOCTYPE svg PUBLIC "-//W3C//DTD SVG 1.1//EN" "http://www.w3.org/Graphics/SVG/1.1/DTD/svg11.dtd" [
	<!ENTITY ns_flows "http://ns.adobe.com/Flows/1.0/">
]>
<svg version="1.1"
	 xmlns="http://www.w3.org/2000/svg" xmlns:xlink="http://www.w3.org/1999/xlink" xmlns:a="http://ns.adobe.com/AdobeSVGViewerExtensions/3.0/"
	 x="0px" y="0px" width="1280px" height="1280px" viewBox="-250.29 -128.412 1280 1280"
	 enable-background="new -250.29 -128.412 1280 1280" xml:space="preserve">
<defs>
</defs>
<path d="M582.979,865.938v81.271c0,6.62-5.369,12-12,12H208.44c-6.63,0-12-5.38-12-12v-81.271H582.979z"/>
<path d="M779.13,476.508v389.43h-196.15v-281.27c0-6.63-5.369-12-12-12H208.44c-6.63,0-12,5.37-12,12v281.27H0.29v-389.43H779.13z"
	/>
<polygon points="779.42,433.65 746.87,433.65 584.86,253.37 390,36.54 195.14,253.37 33.13,433.65 0,433.65 194.85,216.83 389.71,0 
	584.57,216.83 "/>
<g id="XMLID_2_">
	<g>
		<path d="M374.56,821.868c-1.12,0.47,0.06,2.95,0.52,1.56c-0.47,1.78,7.47,7.23,12.4,7.75c16.34,1.73,25.11-13.64,21.72-34.12
			c-7.2-0.029-11.82-2.66-16.03-5.68c0,9.65,0,19.29,0,28.94c-12.46,6.619-5.3-23.25-7.23-28.94c-2.56,4.34-9.66,4.13-13.96,6.72
			c0.13-1.37,1.06-1.7-1.04-1.56c-0.15,3.02-2.35,20.99,3.11,25.85C374.02,821.838,374.28,821.078,374.56,821.868z M504.3,584.607
			c18.2,3.33,18.62,29.65,18.62,52.211c0,37.72-10.33,74.189-26.37,93.56c2.4,7.88,4.5,14.9,8.79,22.75
			c3.41,6.229,11.43,13.3,10.851,20.15c-0.91,10.979-20.95,13.479-26.87,20.17c0.529,2.47,3.39,4.51,3.09,8.79
			c-0.49,7.239-13.9,12.359-20.15,16.02c-8.51,4.97-15.1,9.33-22.75,12.92c-33.91,15.9-84.27,16.75-118.38,0.521
			c-7.37-3.511-14.27-7.9-22.74-12.931c-8.01-4.76-28.72-12.069-17.57-24.8c-4.75-6.24-26.97-10.71-27.4-21.2
			c-0.25-6.199,8.67-14.25,11.37-19.13c5.38-9.689,10.81-20.93,5.18-29.46c-12.71-19.24-25.19-52.59-23.27-93.04
			c0.86-18.149,1.36-38.77,14.47-44.97c4.13-0.65,2.95,0.27,4.66-1.561c13.21-1.02,19.09,5.591,27.91,11.381
			c17.1,11.18,33.63,23.17,50.66,33.59c15.55-5.34,35.47-7.79,54.8-4.13c5.58,1.05,12.38,4.399,16.02,4.13
			c4.11-0.3,13.16-7.891,17.58-10.851c12.49-8.37,21.72-14.51,34.11-22.739C484.68,590.808,490.91,582.158,504.3,584.607z
			 M494.479,716.418c12.45-20.51,19.471-47.3,19.141-80.12c-0.11-9.92-0.24-28.83-3.63-36.19c-6.74-14.64-22.721,0.29-29.98,5.181
			c-19.08,12.859-35.359,23.01-53.76,35.149c-19.47-9.93-54.23-9.279-73.4,0c-17.38-11.76-34.87-23.52-52.73-35.67
			c-5.07-3.449-13.12-10.319-18.6-10.85c-14.61-1.41-14.45,19.16-15,31.53c-1.82,41.56,8.24,81.64,26.89,102.859
			c-2.64,18.41-11.91,32.9-19.65,44.46c10.29,5.91,20.83,11.57,30.5,18.09c-1.8,4.07-4.35,7.37-7.24,10.341
			c22.74,12.93,42.54,28.79,74.96,32.05c-7.85-6.521-10.64-22.08-9.31-38.26c-3.06-1.62-6.94-4.5-9.31-7.75
			c-1.39-1.91-7.84-14.71-1.55-16.53c6.44-1.87,5.63,8.43,6.21,9.82c5.96,14.149,31.61,7.8,27.92-7.761
			c-0.88-3.66-6.64-7.27-8.28-8.79c-2.98-2.75-8.9-5.22-8.27-9.3c0.77-4.979,14.68-3.109,20.16-3.109
			c4.28,0,19.811-1.87,20.68,3.109c0.641,3.72-5.17,7.46-7.76,9.82c-4.25,3.87-8.09,4.85-8.779,8.78
			c-0.98,5.54,3.899,11.609,5.68,12.93c7.28,5.399,17.29,1.68,20.68-2.58c1.5-1.89,2.19-12.47,6.2-12.92
			c8.74-1,1.87,15.26-1.03,18.6c-2.47,2.84-6.8,4.16-8.27,6.721c0.43,12.5,0.3,23.25-3.62,29.979c-1.82,3.12-5.48,5.4-5.17,7.24
			c30.53-2.86,51.819-19.08,74.43-31.53c-1.99-4.04-5.07-6.99-6.71-11.37c10.16-5.87,20.01-12.05,30.49-17.58
			c-3.05-5.739-8.08-12.199-11.891-20.16c-2.149-4.51-8.59-18.289-7.75-24.3C487.13,725.458,492.95,718.958,494.479,716.418z"/>
		<path d="M434.52,712.288c7.5,0.899,13.561,6.42,12.41,15.5c-9.939,5.25-6.55-7.38-16.02-6.19c-3.42,0.42-11.521,14.25-14.48,4.641
			C413.93,718.147,425.87,711.258,434.52,712.288z"/>
		<path d="M337.86,714.868c9.02-6.12,28.1-1.13,24.81,12.92c-8.79,6.439-6.7-7.63-16.02-6.19c-4.56,0.69-5.07,7.391-9.31,7.75
			C327.95,730.138,334.12,717.418,337.86,714.868z"/>
	</g>
	<g>
		<path fill="none" stroke="#000000" stroke-width="0.5" stroke-linecap="round" stroke-linejoin="round" d="M352.85,640.438
			c19.17-9.279,53.93-9.93,73.4,0c18.4-12.14,34.68-22.29,53.76-35.149c7.26-4.891,23.24-19.82,29.98-5.181
			c3.39,7.36,3.52,26.271,3.63,36.19c0.33,32.82-6.69,59.61-19.141,80.12c-1.529,2.54-7.35,9.04-7.75,11.89
			c-0.84,6.011,5.601,19.79,7.75,24.3c3.811,7.961,8.841,14.421,11.891,20.16c-10.48,5.53-20.33,11.71-30.49,17.58
			c1.64,4.38,4.72,7.33,6.71,11.37c-22.61,12.45-43.899,28.67-74.43,31.53c-0.311-1.84,3.35-4.12,5.17-7.24
			c3.92-6.729,4.05-17.479,3.62-29.979c1.47-2.561,5.8-3.881,8.27-6.721c2.9-3.34,9.771-19.6,1.03-18.6
			c-4.01,0.45-4.7,11.03-6.2,12.92c-3.39,4.26-13.399,7.979-20.68,2.58c-1.78-1.32-6.66-7.39-5.68-12.93
			c0.689-3.931,4.529-4.91,8.779-8.78c2.59-2.36,8.4-6.101,7.76-9.82c-0.869-4.979-16.399-3.109-20.68-3.109
			c-5.48,0-19.39-1.87-20.16,3.109c-0.63,4.08,5.29,6.55,8.27,9.3c1.64,1.521,7.4,5.13,8.28,8.79
			c3.69,15.561-21.96,21.91-27.92,7.761c-0.58-1.391,0.23-11.69-6.21-9.82c-6.29,1.82,0.16,14.62,1.55,16.53
			c2.37,3.25,6.25,6.13,9.31,7.75c-1.33,16.18,1.46,31.739,9.31,38.26c-32.42-3.26-52.22-19.12-74.96-32.05
			c2.89-2.971,5.44-6.271,7.24-10.341c-9.67-6.52-20.21-12.18-30.5-18.09c7.74-11.56,17.01-26.05,19.65-44.46
			c-18.65-21.22-28.71-61.3-26.89-102.859c0.55-12.37,0.39-32.94,15-31.53c5.48,0.53,13.53,7.4,18.6,10.85
			C317.98,616.918,335.47,628.678,352.85,640.438z"/>
		<path fill="none" stroke="#000000" stroke-width="0.5" stroke-linecap="round" stroke-linejoin="round" d="M393.69,794.988
			c1.17,3.489,0.189,13.6,0.51,19.649C393.02,811.168,394.01,801.048,393.69,794.988z"/>
		<path fill="none" stroke="#000000" stroke-width="0.5" stroke-linecap="round" stroke-linejoin="round" d="M404.54,823.938
			c-0.57-0.939,0.84-4.3,2.59-4.649C406.07,820.647,405.35,822.338,404.54,823.938z"/>
		<path fill="none" stroke="#000000" stroke-width="0.5" stroke-linecap="round" stroke-linejoin="round" d="M385.94,791.378
			c1.93,5.69-5.23,35.56,7.23,28.94c0-9.65,0-19.29,0-28.94c4.21,3.02,8.83,5.65,16.03,5.68c3.39,20.48-5.38,35.851-21.72,34.12
			c-4.93-0.52-12.87-5.97-12.4-7.75c-0.46,1.391-1.64-1.09-0.52-1.56c-0.28-0.79-0.54-0.03-0.51,0.52
			c-5.46-4.859-3.26-22.83-3.11-25.85c2.1-0.141,1.17,0.189,1.04,1.56C376.28,795.508,383.38,795.718,385.94,791.378z"/>
		<path fill="none" stroke="#000000" stroke-miterlimit="10" d="M354.4,629.578c15.55-5.34,35.47-7.79,54.8-4.13
			c5.58,1.05,12.38,4.399,16.02,4.13c4.11-0.3,13.16-7.891,17.58-10.851c12.49-8.37,21.72-14.51,34.11-22.739
			c7.77-5.181,14-13.83,27.39-11.381c18.2,3.33,18.62,29.65,18.62,52.211c0,37.72-10.33,74.189-26.37,93.56
			c2.4,7.88,4.5,14.9,8.79,22.75c3.41,6.229,11.43,13.3,10.851,20.15c-0.91,10.979-20.95,13.479-26.87,20.17
			c0.529,2.47,3.39,4.51,3.09,8.79c-0.49,7.239-13.9,12.359-20.15,16.02c-8.51,4.97-15.1,9.33-22.75,12.92
			c-33.91,15.9-84.27,16.75-118.38,0.521c-7.37-3.511-14.27-7.9-22.74-12.931c-8.01-4.76-28.72-12.069-17.57-24.8
			c-4.75-6.24-26.97-10.71-27.4-21.2c-0.25-6.199,8.67-14.25,11.37-19.13c5.38-9.689,10.81-20.93,5.18-29.46
			c-12.71-19.24-25.19-52.59-23.27-93.04c0.86-18.149,1.36-38.77,14.47-44.97c4.13-0.65,2.95,0.27,4.66-1.561
			c13.21-1.02,19.09,5.591,27.91,11.381C320.84,607.168,337.37,619.158,354.4,629.578z"/>
	</g>
</g>
<text transform="matrix(1 0 0 1 248.8438 247.0371)" font-family="'HarlowSolid'" font-size="108.3184">Home</text>
<text transform="matrix(1 0 0 1 347.7173 323.8984)" font-family="'HarlowSolid'" font-size="108.3184">Swe</text>
<text transform="matrix(1 0 0 1 238.2222 407.3564)" font-family="'HarlowSolid'" font-size="108.3184">Home</text>
</svg>
